<?xml version="1.0" encoding="utf-8"?>
<!-- Generator: Adobe Illustrator 22.1.0, SVG Export Plug-In . SVG Version: 6.00 Build 0)  -->
<svg version="1.1" id="Layer_1" xmlns="http://www.w3.org/2000/svg"
	xmlns:xlink="http://www.w3.org/1999/xlink" x="0px" y="0px"
	viewBox="0 0 864 864" style="enable-background:new 0 0 864 864;" xml:space="preserve">
<path  fill="#333" d="M258,407.1c-10.8,0-39,8.7-39,19.5c0,10.8,9.5,23.6,19.5,19.5c19.5-8,39,8.3,39-19.5C277.5,415.9,268.8,407.1,258,407.1z"/>
<path  fill="#333" d="M379.2,58.1c10.8,0,39-9,39-19.8c0-10.8-8.7-19.5-19.5-19.5s-37.8,8.7-37.8,19.5C360.9,49.1,368.4,58.1,379.2,58.1z"/>
<path  fill="#333" d="M322.5,623.1c-10.8,0-19.5,8.7-19.5,19.5c0,10.8,9.7,15.1,19.5,19.5c19.5,8.8,39-10.7,39-21.5
	C361.5,629.9,333.3,623.1,322.5,623.1z"/>
<path  fill="#333" d="M72.8,741c-10.8,0-19.5,8.7-19.5,19.5c0,10.8,8.7,19.5,19.5,19.5s30-28.2,30-39C102.8,730.2,83.6,741,72.8,741z"/>
<path  fill="#333" d="M171.9,642.8c-10.8,0-19.5,8.7-19.5,19.5s-1,36.6,9.8,36.6c10.8,0,39.3-25.8,39.3-36.6S182.6,642.8,171.9,642.8z"/>
<path  fill="#333" d="M407.5,445.6c-10.8,0-19.5,8.7-19.5,19.5c0,10.8-14.3,29.9-3.5,29.9s42.5-8.4,42.5-19.2S418.3,445.6,407.5,445.6z"/>
<path  fill="#333" d="M98,96.7c19.5,12,19.5-8.7,19.5-19.5c0-10.8-8.7-19.5-19.5-19.5s-19.5,8.7-19.5,19.5C78.5,87.9,88.9,91,98,96.7z"/>
<path  fill="#333" d="M238.5,272.1c-10.8,0-19.5,19.5-19.5,30.3s8.7,8.7,19.5,8.7c2.9,0,6.5,0.1,10.1,0c2.8,1.5,6,2.4,9.4,2.4
	c10.8,0,19.5,2,19.5-8.7c0-10.8-8.7-30.3-19.5-30.3c-3,0-5.8,0.7-8.4,1.9C245.7,273.8,241.8,272.1,238.5,272.1z"/>
<path  fill="#333" d="M107,212.1c0,10.8,10.2,14.1,19.5,19.5c19.7,11.5,19.5-8.7,19.5-19.5c0-10.8-8.7-19.5-19.5-19.5S107,201.4,107,212.1z"/>
<path  fill="#333" d="M407.5,731.5c-1.9,0-4.1,0.1-6.5,0.4c-1.5-3.6-3.9-6.7-6.5-8.7c-7.8-5.8-8.3-25.6-17-13.8c-8.8,11.8-18.3,37.9-10.5,43.7
	c4.6,3.4,11.5,7.7,18.2,8.4c7.4,5.2,16.6,9.1,22.4,9.1c10.8,0,19.5-8.7,19.5-19.5C427,740.2,418.3,731.5,407.5,731.5z"/>
<path  fill="#333" d="M145.3,758.1c-10.8,0-19.5,8.7-19.5,19.5c0,10.8,9.7,36.1,19.5,31.7c28.7-12.9,19.5-20.9,19.5-31.7
	C164.8,766.8,156.1,758.1,145.3,758.1z"/>
<path  fill="#333" d="M258,504.1c-10.8,0-19.5,19.5-19.5,30.3s8.8,8.7,19.6,8.7c10.8,0,19.4-8.7,19.4-19.5C277.5,512.9,268.8,504.1,258,504.1z"/>
<path  fill="#333" d="M331,262.6c0,10.8,0.2,29,11,29s42.5-19.5,28-29c-9-5.9-8.7-19.5-19.5-19.5S331,251.9,331,262.6z"/>
<path  fill="#333" d="M180,140.7c0,10.8,28.2,7,39,7s19.5-8.7,19.5-19.5c0-10.8-8.7-19.5-19.5-19.5C199.5,108.6,180,129.9,180,140.7z"/>
<path  fill="#333" d="M18.6,397.6c0,10.8,10.8,13.1,19.5,19.5c9.5,7,34.6-8.7,34.6-19.5c0-10.8-23.9-19.5-34.6-19.5S18.6,386.8,18.6,397.6z"/>
<path  fill="#333" d="M177.7,575c10.8,0,0-10.7,0-21.5c0-10.8-8.7-19.5-19.5-19.5c-10.8,0-19.5,8.7-19.5,19.5C138.7,583.8,166.9,575,177.7,575z"
	/>
<path  fill="#333" d="M83.5,648.7c0-10.8,0.3-34-10.5-34s-19.5,8.7-19.5,19.5c0,10.8,8.8,37.9,19.5,39C92.5,675.2,83.5,659.5,83.5,648.7z"/>
<path  fill="#333" d="M400.5,212.1c0,10.8-7.5,25.3,3.2,25.3c10.8,0,42.8-5.8,35.8-25.3c-3.6-10.1-8.7-19.5-19.5-19.5S400.5,201.4,400.5,212.1z"
	/>
<path  fill="#333" d="M351.1,361.4c-23-18.9-64.7-10.5-63.9,6.7c0.5,10.4-0.8,26.2,12.9,26.2C316.3,394.3,355.2,390.6,351.1,361.4z"/>
<path  fill="#333" d="M107,291.7c0-10.8-30.1-19.5-40.9-19.5s-30.7,8.7-30.7,19.5c0,10.8,25.3,28.8,30.7,19.5C71.2,302.6,107,302.4,107,291.7z"/>
<path  fill="#333" d="M199.5,38.2c10.8,0,19.5,2.7,19.5-8c0-10.8-8.7-19.5-19.5-19.5s-39-2.7-39,8C160.5,29.4,188.8,38.2,199.5,38.2z"/>
<path  fill="#333" d="M311.5,185.7c10.4-6.1,25.3-7.3,25.3-18.1s-8.7-19.5-19.5-19.5c-10.8,0-30.2,9-30.2,19.8C287.2,188.5,304.2,190,311.5,185.7
	z"/>
<path  fill="#333" d="M459,357.1c0-9.6-6.9-17.5-15.9-19.2c-3.9-3.4-8.4-5.7-13.3-5.7c-14.2,0-25.8,8.7-25.8,19.5c0,9,8,16.5,18.9,18.8
	c3.4,8.8,9.3,17,16.3,17C450,387.6,459,367.9,459,357.1z"/>
<path  fill="#333" d="M361.2,541.6c0,10.8,8.7,38,19.5,38c10.8,0,26.5-18.7,26.5-29.5c0-10.8-8.7-19.5-19.5-19.5
	C376.9,530.6,361.2,530.9,361.2,541.6z"/>
<path  fill="#333" d="M137.3,348.6c-10.8,0-49.8,8.7-49.8,19.5c0,10.8,28.2,19.5,39,19.5s19.5-8.7,19.5-19.5C146,357.4,148.1,348.6,137.3,348.6z"
	/>
<path  fill="#333" d="M39.3,231.6c10.8,0,30.3-8.7,30.3-19.5c0-10.8-13.1-34-23.9-34s-15.1,23.2-15.1,34C30.5,222.9,28.5,231.6,39.3,231.6z"/>
<path  fill="#333" d="M478,116.2c10.1-3.8,19.5-8.7,19.5-19.5c0-10.8-8.7-19.5-19.5-19.5s-8.9,17.9-19.5,19.5C446.5,98.5,446.5,128.1,478,116.2z"
	/>
<path  fill="#333" d="M312.3,95.6c9.7,0,21.9,15.6,21.9,0.9s-7.9-41.3-17.6-41.3s-26.6,1.9-26.6,16.6S302.6,95.6,312.3,95.6z"/>
<path  fill="#333" d="M233.5,741.1c-10.8,0-19.5,8.7-19.5,19.5c0,10.8,8.7,19.5,19.5,19.5s29.5-8.7,29.5-19.5C263,749.9,244.3,741.1,233.5,741.1z
	"/>
<path  fill="#333" d="M315.8,767.4c-10.8,0-19.5,8.7-19.5,19.5c0,10.8,12.2,33,23,33c10.8,0,23-22.2,23-33C342.3,776.2,326.6,767.4,315.8,767.4z"
	/>
<path  fill="#333" d="M107,465.1c-10.8,0-19.5,8.7-19.5,19.5c0,10.8,8.7,19.5,19.5,19.5s30-5.5,30-16.3S117.8,465.1,107,465.1z"/>
<path  fill="#333" d="M136.5,449.2c0,10.8,8.7,19.5,19.5,19.5s19.5,2,19.5-8.7s-8.7-30.3-19.5-30.3S136.5,438.4,136.5,449.2z"/>
<path  fill="#333" d="M837.2,679c-8.6-6.4-22.1-18-28.5-9.4s-3.3,34.3,5.3,40.7s20.9,4.6,27.3-4S845.9,685.5,837.2,679z"/>
<path  fill="#333" d="M686.9,374.7c6.4-8.6,6.4-24.6-4-27.3c-20.4-5.2-26.4-29.9-42.9-7.6c-6.4,8.6-4.6,20.9,4,27.3
	C652.6,373.5,680.4,383.4,686.9,374.7z"/>
<path  fill="#333" d="M300.3,618.6c6.4-8.6,5.8-20.4-2.8-26.8c-8.6-6.4-36.7-16-43.1-7.3c-6.4,8.6-4.6,20.9,4,27.3S293.9,627.3,300.3,618.6z"/>
<path  fill="#333" d="M720.9,155.2c8.6,6.4,20.9,4.6,27.3-4c6.4-8.6,1.2-17.9-4-27.3c-10.4-18.6-37.7-14.6-44.1-6
	C693.6,126.6,712.2,148.8,720.9,155.2z"/>
<path  fill="#333" d="M816.1,197.4c8.6,6.4,20.9,4.6,27.3-4c6.4-8.6,22.6-28.8,14-35.2s-46.9-2.6-53.3,6S807.4,191,816.1,197.4z"/>
<path  fill="#333" d="M546.8,247.1c8.6,6.4,20.9,4.6,27.3-4c6.4-8.6,29.3-15.5,20.7-22c-8.6-6.4-39.1-18.6-45.6-9.9S538.2,240.7,546.8,247.1z"/>
<path  fill="#333" d="M568.3,672.1c-6.4,8.6-4.6,20.9,4,27.3s20.9,4.6,27.3-4c6.4-8.6,0-17.3-4-27.3C587.1,646.8,574.7,663.4,568.3,672.1z"/>
<path  fill="#333" d="M602.4,455.8c-2.4-1.8-5.2-3.9-8.1-6c-1.3-2.9-3.4-5.5-6.1-7.6c-8.6-6.4-14.4-13.3-20.9-4.6c-6.4,8.6-11,29.5-2.4,35.9
	c2.4,1.8,5.1,2.9,7.9,3.5c1.6,4.5,3.7,8.2,6.3,10.1c8.6,6.4,27.3-4,33.7-12.7S611,462.2,602.4,455.8z"/>
<path  fill="#333" d="M577.4,559.2c-6.4,8.6-4.6,20.9,4,27.3s20.9,4.6,27.3-4c6.4-8.6,0.2-17.4-4-27.3C595.7,534.2,583.8,550.5,577.4,559.2z"/>
<path  fill="#333" d="M792.5,762.6c-8.6-6.4-27.4,4.2-33.8,12.9s-4.6,20.9,4,27.3c8.6,6.4,27.1,6.7,27.3-4C790.3,783.2,801.1,769,792.5,762.6z"/>
<path  fill="#333" d="M750.7,77.6c8.6,6.4,29.5,17,35.9,8.3c6.4-8.6-4-33.2-12.6-39.6c-8.6-6.4-20.9-4.6-27.3,4C740.2,59,742,71.2,750.7,77.6z"/>
<path  fill="#333" d="M701.7,289.2c8.6,6.4,27.3-4,33.7-12.7s-1.9-12.2-10.5-18.7c-8.6-6.4-20.8-4.6-27.2,4.1
	C691.3,270.6,693.1,282.8,701.7,289.2z"/>
<path  fill="#333" d="M467.9,416.4c3.7,10.1-4.6,20.9,4,27.3s20.9,4.6,27.3-4c6.4-8.6,17.1-23.4,8.5-29.9C499,403.4,461.9,400.1,467.9,416.4z"/>
<path  fill="#333" d="M484.5,606.1c-8.6-6.4-20.9-4.6-27.3,4s-4.6,20.9,4,27.3c15.7,11.6,44,6.2,50.4-2.5C518,626.3,493.1,612.5,484.5,606.1z"/>
<path  fill="#333" d="M636.8,765.4c-8.6-6.4-23.2,17.9-29.7,26.5c-6.4,8.6-4.6,20.9,4,27.3c8.6,6.4,20.9,4.6,27.3-4S645.5,771.8,636.8,765.4z"/>
<path  fill="#333" d="M785,591.4c8.6,6.4,20.9,4.6,27.3-4c6.4-8.6-0.9-17-4-27.3c-3.5-11.3-33-13.6-39.4-5S776.4,585,785,591.4z"/>
<path  fill="#333" d="M792.6,295.7c8.6,6.4,20.9,4.6,27.3-4c18-24.3-9.9-34.1-18.5-40.5c-8.6-6.4-6.4,8.6-12.8,17.3
	C782.1,277.1,784,289.3,792.6,295.7z"/>
<path  fill="#333" d="M597.3,381c5.8-8.6,16.3-20.5,5.2-28.7c-12.9-9.6-46.5-29.8-60.5-4C549.2,377.2,587.6,395.3,597.3,381z"/>
<path  fill="#333" d="M731.1,565.9c-9.2,3.8-38-17.4-44.4-8.7s12.6,33.6,21.2,40c8.6,6.4,29.9,11.3,36.3,2.7S741,561.8,731.1,565.9z"/>
<path  fill="#333" d="M471,698.2c-8.6-6.4-14-13.8-20.5-5.2s-4.6,20.9,4,27.3s29.7,25.4,36.1,16.8S479.6,704.7,471,698.2z"/>
<path  fill="#333" d="M477.9,541.9c12.3-16.6-0.4-27.9-8.9-28.8c-11.9-1.3-24.7-9.2-31.1-0.6c-6.4,8.6-4.6,20.9,4,27.3
	C450.5,546.2,471.5,550.5,477.9,541.9z"/>
<path  fill="#333" d="M589.3,157.2c8.6,6.4,21.4,15.6,27.8,7s15.6-35.7,7-42.1c-8.6-6.4-32.4-0.8-38.9,7.9S580.6,150.8,589.3,157.2z"/>
<path  fill="#333" d="M757.6,500.1c6.4-8.6-11-32.5-19.7-38.9c-8.6-6.4-20.9-4.6-27.3,4s-13.3,14.4-4.6,20.9C714.7,492.5,751.2,508.7,757.6,500.1
	z"/>
<path  fill="#333" d="M843.8,455.2c-8.6-6.4-35.4-1.9-33.7,12.7c1.2,10.7-1.4,32.2,19.5,39.2c10.2,3.5,11.9-16,18.3-24.6S852.5,461.6,843.8,455.2
	z"/>
<path  fill="#333" d="M562.5,741c-8.6-6.4-16.4,9.5-22.8,18.1s-4.6,20.9,4,27.3s20.9,4.6,27.3-4S571.1,747.4,562.5,741z"/>
<path  fill="#333" d="M678,677.6c8.6,6.4,26-9.6,32.4-18.3c6.4-8.6,13.3-14.4,4.6-20.9c-8.6-6.4-29.5-11-35.9-2.4S669.3,671.2,678,677.6z"/>
<path  fill="#333" d="M317.2,481.2c8.6,6.4,17.8-9.1,27.3-4c10.7,5.7,28.4-18.1-4-27.3c-10.4-2.9-20.9-4.6-27.3,4S308.6,474.8,317.2,481.2z"/>
<path  fill="#333" d="M632.5,59.7c8.6,6.4,20.9,4.6,27.3-4s9.8-33.8,1.2-40.2c-8.6-6.4-31.7,4.1-38.1,12.8C616.4,36.9,623.9,53.3,632.5,59.7z"/>
<path  fill="#333" d="M704.2,749.9c-8.6-6.4-20.9-4.6-27.3,4c-6.4,8.6-4.6,20.9,4,27.3s16.9-1.3,27.3-4C738.4,769.1,712.8,756.3,704.2,749.9z"/>
<path  fill="#333" d="M827,406.5c6.4-8.6,4.6-20.9-4-27.3c-8.6-6.4-27.4-13.5-33.8-4.8c-6.4,8.6,1.9,29.7,10.5,36.1
	C808.4,417,820.6,415.2,827,406.5z"/>
<path  fill="#333" d="M461.4,324.8c11.4,8.5,25.9,8.4,32.3-0.3c5.3-7.2,3.4-18-4-26.3c2.5-9,2.7-19.2-2.9-23.4c-8.6-6.4-27.7,4-34.1,12.7
	c-5.7,7.7-4.9,18.1,1.4,24.9C455.2,317.4,457.5,321.9,461.4,324.8z"/>
<path  fill="#333" d="M762.6,378.5c-8.6-6.4-14.4-13.3-20.9-4.6c-6.4,8.6-11,29.5-2.4,35.9c8.6,6.4,20.9,4.6,27.3-4
	C773,397.1,771.2,384.9,762.6,378.5z"/>
<path  fill="#333" d="M75.6,578c0,10.8,8.7,38,19.5,38c10.8,0,26.5-18.7,26.5-29.5c0-10.8-8.7-19.5-19.5-19.5C91.4,567,75.6,567.2,75.6,578z"/>
<path  fill="#333" d="M31.7,517.5c8.6,6.4,17.8-9.1,27.3-4c10.7,5.7,28.4-18.1-4-27.3c-10.4-2.9-20.9-4.6-27.3,4S23.1,511.1,31.7,517.5z"/>
<path  fill="#333" d="M49.5,148.8c8.6,6.4,20.9,4.6,27.3-4c6.4-8.6,1.2-17.9-4-27.3c-10.4-18.6-37.7-14.6-44.1-6
	C22.2,120.2,40.8,142.4,49.5,148.8z"/>
</svg>